<svg width="258" height="68" viewBox="0 0 258 68" fill="none" xmlns="http://www.w3.org/2000/svg">
<g clip-path="url(#clip0_138_274)">
<path d="M31.6624 0L0 11.291L4.82929 53.1562L31.6624 68.0181L58.4956 53.1562L63.3249 11.291L31.6624 0Z" fill="#D1D1D1"/>
<path d="M31.6284 0V7.55001V7.516V41.9672V68.0181L58.4327 53.1562L63.2568 11.291L31.6284 0Z" fill="#FEFEFE"/>
<path fill-rule="evenodd" clip-rule="evenodd" d="M45.572 25.7618L31.6283 17.6847L17.6846 25.7618V41.9161L31.6283 49.9933L45.572 41.9161V25.7618ZM44.3594 26.4641L31.6282 19.0893L18.897 26.4641V41.2137L31.6282 48.5885L44.3594 41.2137V26.4641Z" fill="#404040"/>
<path d="M31.596 25.4784L38.5067 29.6587V38.0192L31.596 42.1995L24.6853 38.0192V29.6587L31.596 25.4784Z" fill="#404040"/>
<path d="M38.2343 19.5269L40.3748 20.8022V23.3529L38.2343 24.6282L36.0938 23.3529V20.8022L38.2343 19.5269Z" fill="#404040"/>
<path fill-rule="evenodd" clip-rule="evenodd" d="M4.76123 14.6987L31.6284 5.10132L58.4955 14.6987L54.3976 50.2841L31.6284 62.9167L8.85912 50.2841L4.76123 14.6987ZM7.48195 16.7433L31.6284 8.16213L55.7748 16.7433L52.0919 48.5608L31.6284 59.8559L11.1649 48.5608L7.48195 16.7433Z" fill="#404040"/>
<path d="M95.3211 20.4118V50.3929H92.7678L75.5327 24.7772V50.3929H73V20.4118H75.5327L92.8089 46.0276V20.4118H95.3211Z" fill="#FEFEFE"/>
<path d="M117.909 28.113H120.195V50.0017C120.195 51.9373 119.824 53.5983 119.083 54.9848C118.355 56.3713 117.319 57.4352 115.973 58.1765C114.642 58.9178 113.07 59.2884 111.258 59.2884C110.338 59.2884 109.391 59.1443 108.416 58.856C107.455 58.5815 106.543 58.1559 105.678 57.5793C104.827 57.0165 104.099 56.3164 103.495 55.479L104.875 53.9758C105.781 55.0741 106.749 55.8771 107.778 56.385C108.808 56.9067 109.92 57.1675 111.114 57.1675C112.528 57.1675 113.722 56.8861 114.697 56.3233C115.685 55.7604 116.433 54.9505 116.941 53.8935C117.463 52.8365 117.724 51.5666 117.724 50.0841V33.0138L117.909 28.113ZM102.26 39.4795V39.0471C102.26 37.3174 102.452 35.7593 102.836 34.3728C103.234 32.9726 103.804 31.7783 104.545 30.7899C105.287 29.7878 106.186 29.0259 107.243 28.5043C108.313 27.9689 109.521 27.7012 110.867 27.7012C112.157 27.7012 113.303 27.914 114.306 28.3395C115.308 28.7651 116.173 29.376 116.9 30.1722C117.628 30.9684 118.211 31.9156 118.65 33.0138C119.103 34.112 119.433 35.3337 119.639 36.679V42.177C119.474 43.4399 119.172 44.5999 118.733 45.6569C118.293 46.7002 117.71 47.6131 116.982 48.3956C116.255 49.1643 115.376 49.7615 114.347 50.187C113.331 50.5988 112.157 50.8048 110.826 50.8048C109.494 50.8048 108.3 50.5302 107.243 49.9811C106.186 49.432 105.287 48.6564 104.545 47.6543C103.804 46.6384 103.234 45.4373 102.836 44.0508C102.452 42.6643 102.26 41.1405 102.26 39.4795ZM104.731 39.0471V39.4795C104.731 40.7836 104.861 41.9916 105.122 43.1036C105.383 44.2155 105.781 45.1833 106.316 46.007C106.851 46.8306 107.531 47.4758 108.355 47.9426C109.178 48.4093 110.146 48.6427 111.258 48.6427C112.672 48.6427 113.859 48.375 114.82 47.8396C115.781 47.2905 116.543 46.5698 117.106 45.6775C117.669 44.7715 118.081 43.7831 118.341 42.7123V36.3084C118.19 35.5808 117.957 34.8395 117.641 34.0845C117.339 33.3295 116.914 32.6363 116.365 32.0048C115.829 31.3596 115.143 30.8448 114.306 30.4604C113.482 30.0623 112.48 29.8633 111.299 29.8633C110.174 29.8633 109.192 30.0967 108.355 30.5634C107.531 31.0301 106.851 31.6822 106.316 32.5196C105.781 33.3432 105.383 34.311 105.122 35.423C104.861 36.5349 104.731 37.7429 104.731 39.0471Z" fill="#FEFEFE"/>
<path d="M137.903 22.2033L127.524 50.3929H124.889L136.214 20.4118H138.047L137.903 22.2033ZM147.333 50.3929L136.935 22.2033L136.791 20.4118H138.623L149.969 50.3929H147.333ZM145.48 39.8089V41.9916H129.563V39.8089H145.48Z" fill="#FEFEFE"/>
<path d="M162.735 28.113V30.131H151.574V28.113H162.735ZM155.672 22.3886H158.122V44.9774C158.122 46.007 158.26 46.7826 158.534 47.3042C158.809 47.8259 159.166 48.1759 159.605 48.3544C160.044 48.5328 160.518 48.6221 161.026 48.6221C161.397 48.6221 161.753 48.6015 162.097 48.5603C162.44 48.5054 162.749 48.4505 163.023 48.3956L163.126 50.4753C162.824 50.5714 162.433 50.6469 161.952 50.7018C161.472 50.7704 160.992 50.8048 160.511 50.8048C159.564 50.8048 158.726 50.6332 157.999 50.29C157.271 49.9331 156.702 49.329 156.29 48.4779C155.878 47.6131 155.672 46.4394 155.672 44.9568V22.3886Z" fill="#FEFEFE"/>
<path d="M166.976 39.603V38.9235C166.976 37.3037 167.209 35.8073 167.676 34.4346C168.143 33.0618 168.809 31.8744 169.673 30.8723C170.552 29.8702 171.602 29.0945 172.824 28.5454C174.046 27.9826 175.405 27.7012 176.901 27.7012C178.411 27.7012 179.777 27.9826 180.999 28.5454C182.22 29.0945 183.271 29.8702 184.149 30.8723C185.028 31.8744 185.7 33.0618 186.167 34.4346C186.634 35.8073 186.867 37.3037 186.867 38.9235V39.603C186.867 41.2229 186.634 42.7192 186.167 44.092C185.7 45.451 185.028 46.6316 184.149 47.6337C183.284 48.6358 182.241 49.4183 181.019 49.9811C179.798 50.5302 178.439 50.8048 176.942 50.8048C175.432 50.8048 174.066 50.5302 172.845 49.9811C171.623 49.4183 170.573 48.6358 169.694 47.6337C168.815 46.6316 168.143 45.451 167.676 44.092C167.209 42.7192 166.976 41.2229 166.976 39.603ZM169.426 38.9235V39.603C169.426 40.8248 169.591 41.9848 169.921 43.083C170.25 44.1675 170.73 45.1353 171.362 45.9864C171.993 46.8238 172.776 47.4827 173.709 47.9631C174.643 48.4436 175.72 48.6838 176.942 48.6838C178.15 48.6838 179.214 48.4436 180.134 47.9631C181.067 47.4827 181.85 46.8238 182.481 45.9864C183.113 45.1353 183.586 44.1675 183.902 43.083C184.232 41.9848 184.396 40.8248 184.396 39.603V38.9235C184.396 37.7155 184.232 36.5692 183.902 35.4847C183.586 34.4003 183.106 33.4325 182.461 32.5814C181.829 31.7302 181.047 31.0576 180.113 30.5634C179.18 30.0692 178.109 29.8221 176.901 29.8221C175.693 29.8221 174.622 30.0692 173.689 30.5634C172.769 31.0576 171.987 31.7302 171.341 32.5814C170.71 33.4325 170.229 34.4003 169.9 35.4847C169.584 36.5692 169.426 37.7155 169.426 38.9235Z" fill="#FEFEFE"/>
<path d="M195.144 32.7255V50.3929H192.673V28.113H195.041L195.144 32.7255ZM194.691 37.8734L193.497 37.2556C193.579 35.9378 193.826 34.7023 194.238 33.5492C194.664 32.396 195.254 31.3802 196.009 30.5016C196.764 29.6231 197.67 28.9367 198.727 28.4425C199.784 27.9483 200.985 27.7012 202.331 27.7012C203.415 27.7012 204.397 27.8522 205.275 28.1542C206.167 28.4425 206.922 28.9024 207.54 29.5338C208.172 30.1516 208.659 30.9615 209.002 31.9636C209.345 32.9657 209.517 34.1669 209.517 35.5671V50.3929H207.067V35.6495C207.067 34.1669 206.833 33.0069 206.367 32.1695C205.914 31.3321 205.275 30.735 204.452 30.3781C203.642 30.0212 202.701 29.8427 201.63 29.8427C200.368 29.8427 199.297 30.1035 198.418 30.6252C197.553 31.1331 196.846 31.7989 196.297 32.6225C195.762 33.4325 195.364 34.3042 195.103 35.2377C194.842 36.1574 194.705 37.036 194.691 37.8734ZM209.496 35.9378L207.849 35.9789C207.918 34.8945 208.165 33.858 208.59 32.8696C209.03 31.8812 209.627 31.0027 210.382 30.2339C211.137 29.4515 212.036 28.8337 213.079 28.3807C214.136 27.9277 215.324 27.7012 216.642 27.7012C217.795 27.7012 218.824 27.8591 219.73 28.1748C220.636 28.4768 221.398 28.9641 222.016 29.6368C222.647 30.2957 223.128 31.14 223.457 32.1695C223.787 33.1991 223.952 34.4346 223.952 35.876V50.3929H221.481V35.8554C221.481 34.2767 221.247 33.055 220.781 32.1901C220.327 31.3116 219.696 30.7007 218.886 30.3575C218.076 30.0143 217.129 29.8427 216.044 29.8427C214.974 29.8564 214.033 30.0555 213.223 30.4398C212.414 30.8105 211.734 31.3047 211.185 31.9224C210.65 32.5264 210.238 33.1785 209.949 33.8786C209.675 34.5787 209.524 35.2651 209.496 35.9378Z" fill="#FEFEFE"/>
<path d="M233.793 28.113V50.3929H231.343V28.113H233.793ZM230.911 21.6679C230.911 21.2012 231.055 20.8099 231.343 20.4942C231.645 20.1647 232.057 20 232.579 20C233.1 20 233.512 20.1647 233.814 20.4942C234.13 20.8099 234.288 21.2012 234.288 21.6679C234.288 22.1209 234.13 22.5122 233.814 22.8416C233.512 23.1574 233.1 23.3152 232.579 23.3152C232.057 23.3152 231.645 23.1574 231.343 22.8416C231.055 22.5122 230.911 22.1209 230.911 21.6679Z" fill="#FEFEFE"/>
<path d="M249.586 48.6838C250.63 48.6838 251.604 48.4917 252.51 48.1073C253.43 47.7092 254.185 47.1258 254.775 46.357C255.379 45.5745 255.723 44.6205 255.805 43.4948H258.152C258.084 44.9088 257.651 46.1717 256.855 47.2836C256.073 48.3818 255.043 49.2467 253.766 49.8781C252.503 50.4959 251.11 50.8048 249.586 50.8048C248.035 50.8048 246.662 50.5233 245.468 49.9605C244.287 49.3977 243.299 48.6152 242.503 47.6131C241.707 46.5973 241.103 45.4167 240.691 44.0714C240.293 42.7123 240.094 41.2503 240.094 39.6854V38.8206C240.094 37.2556 240.293 35.8005 240.691 34.4552C241.103 33.0961 241.707 31.9156 242.503 30.9135C243.299 29.8976 244.287 29.1083 245.468 28.5454C246.649 27.9826 248.014 27.7012 249.566 27.7012C251.158 27.7012 252.586 28.0238 253.849 28.669C255.125 29.3142 256.141 30.2271 256.896 31.4076C257.665 32.5882 258.084 33.9884 258.152 35.6083H255.805C255.736 34.414 255.42 33.3844 254.858 32.5196C254.295 31.6547 253.554 30.989 252.634 30.5222C251.714 30.0555 250.691 29.8221 249.566 29.8221C248.303 29.8221 247.225 30.0692 246.333 30.5634C245.441 31.0439 244.713 31.7097 244.15 32.5608C243.601 33.3982 243.196 34.3591 242.935 35.4436C242.674 36.5143 242.544 37.64 242.544 38.8206V39.6854C242.544 40.8797 242.668 42.0191 242.915 43.1036C243.175 44.1743 243.58 45.1284 244.13 45.9658C244.692 46.8032 245.42 47.469 246.312 47.9631C247.218 48.4436 248.31 48.6838 249.586 48.6838Z" fill="#FEFEFE"/>
</g>
<defs>
<clipPath id="clip0_138_274">
<rect width="258" height="68" fill="white"/>
</clipPath>
</defs>
</svg>
